Coordinates
version=1
nRows=29
nColumns=24
inDegrees=yes

Units are S.I. units (second, meters, Newtons, ...)
Angles are in degrees.

endheader
time	pelvis_tilt	pelvis_list	pelvis_rotation	pelvis_tx	pelvis_ty	pelvis_tz	hip_flexion_r	hip_adduction_r	hip_rotation_r	knee_angle_r	ankle_angle_r	subtalar_angle_r	mtp_angle_r	hip_flexion_l	hip_adduction_l	hip_rotation_l	knee_angle_l	ankle_angle_l	subtalar_angle_l	mtp_angle_l	lumbar_extension	lumbar_bending	lumbar_rotation
      4.59500000	    -15.47201354	      4.39064024	     -1.30497207	     -1.01857478	     -0.01502605	     -0.32633531	     35.13473067	     -4.90156527	     -0.81741977	    -60.47855078	     -0.23052809	     -9.13094618	     18.97096098	     22.79243626	      6.28708909	     -7.62820863	    -22.96018502	      7.40404300	     -2.09385039	      5.08746080	     18.47893788	     -6.62753760	    -12.43243353
      4.60000000	    -15.58245658	      4.11820349	     -1.14800322	     -1.01280826	     -0.01422221	     -0.32681233	     35.78578581	     -4.68628579	     -1.28552527	    -59.63595503	      0.09703115	     -9.64242715	     18.68801968	     22.25593542	      6.13070948	     -7.42422624	    -22.52427479	      7.41891697	     -1.99272627	      5.03708541	     18.51502850	     -6.42703126	    -12.78957444
      4.60500000	    -15.63664997	      3.82096972	     -0.94234655	     -1.00704346	     -0.01339654	     -0.32733647	     36.32689059	     -4.49614285	     -1.82676032	    -58.71675579	      0.42840798	    -10.07000450	     18.27706319	     21.67490410	      5.95888829	     -7.20104250	    -22.11887652	      7.44089235	     -1.84442260	      4.97386954	     18.48436633	     -6.21970637	    -13.20980185
      4.61000000	    -15.67306055	      3.54024968	     -0.75032457	     -1.00127586	     -0.01260338	     -0.32782689	     36.83064039	     -4.32016663	     -2.35310756	    -57.74663873	      0.71870499	    -10.45618181	     17.75825700	     21.07810761	      5.79092960	     -7.01041695	    -21.71504715	      7.45684648	     -1.68716832	      4.89454629	     18.43774138	     -6.02610837	    -13.60259179
      4.61500000	    -15.70316489	      3.27232404	     -0.55969831	     -0.99551599	     -0.01185517	     -0.32827285	     37.30848692	     -4.16159541	     -2.88125395	    -56.73067313	      0.98366821	    -10.77052685	     17.14113030	     20.48731669	      5.62197453	     -6.85501925	    -21.33049232	      7.46513411	     -1.49965783	      4.81355592	     18.38609135	     -5.85245922	    -13.98761469
      4.62000000	    -15.63517456	      3.08568451	     -0.38177293	     -0.98973354	     -0.01108459	     -0.32868542	     37.67596883	     -4.08210068	     -3.37076685	    -55.73753936	      1.32879424	    -10.80303160	     15.48022262	     19.77792933	      5.52527463	     -6.73261433	    -20.92560010	      7.47759134	     -1.19595485	      4.63760006	     18.23562506	     -5.74879195	    -14.31045495
      4.62500000	    -15.76971912	      2.84570753	     -0.23136195	     -0.98402990	     -0.01056658	     -0.32906791	     38.24184081	     -3.91575928	     -3.81239445	    -54.61535165	      1.50173744	    -11.08247101	     15.16127374	     19.33218632	      5.35453455	     -6.64662160	    -20.58298202	      7.45679818	     -1.05457559	      4.61138345	     18.29871319	     -5.57736807	    -14.64809097
      4.63000000	    -15.84340245	      2.61059551	     -0.07956402	     -0.97827657	     -0.01004229	     -0.32944142	     38.71241621	     -3.77142393	     -4.27030248	    -53.44465288	      1.67030730	    -11.22756747	     14.85134980	     18.80692212	      5.18434393	     -6.54385061	    -20.22049049	      7.47429772	     -0.84330438	      4.60401477	     18.30399668	     -5.41510268	    -14.97118952
      4.63500000	    -15.88853034	      2.38828229	      0.09516744	     -0.97255610	     -0.00951540	     -0.32977629	     39.12166454	     -3.64461008	     -4.72125315	    -52.21677987	      1.82427613	    -11.32491165	     14.50919642	     18.27055410	      5.01957821	     -6.44555172	    -19.88719193	      7.45036045	     -0.57620464	      4.60448163	     18.26957618	     -5.27816907	    -15.29441022
      4.64000000	    -15.90916285	      2.19703325	      0.24816531	     -0.96679492	     -0.00905275	     -0.33010597	     39.49316468	     -3.54627127	     -5.16277026	    -50.96474036	      1.95837191	    -11.35326654	     14.12754260	     17.69856600	      4.87834357	     -6.37745285	    -19.54065618	      7.46753499	     -0.29652376	      4.61674783	     18.22339278	     -5.16106760	    -15.62944592
      4.64500000	    -15.95247826	      2.00572998	      0.39605386	     -0.96105011	     -0.00864931	     -0.33038127	     39.86331663	     -3.43371003	     -5.56782092	    -49.65951154	      2.07785229	    -11.28323337	     13.82029982	     17.16509627	      4.72554635	     -6.32183261	    -19.21463263	      7.45140142	     -0.02340960	      4.62966095	     18.19570702	     -5.04626366	    -15.91054322
      4.65000000	    -15.99297438	      1.82795588	      0.53277060	     -0.95528566	     -0.00830436	     -0.33063636	     40.20814798	     -3.32506591	     -5.94715509	    -48.31193232	      2.17951290	    -11.15246769	     13.57924739	     16.62984630	      4.57926135	     -6.26561902	    -18.89342599	      7.44382240	      0.26177780	      4.65191102	     18.17167322	     -4.93901675	    -16.17992304
      4.65500000	    -16.08646836	      1.68577604	      0.61704085	     -0.94952451	     -0.00807830	     -0.33079997	     40.59929231	     -3.19952952	     -6.21418386	    -46.92601448	      2.27347375	    -10.92598585	     13.46900524	     16.15364339	      4.45382997	     -6.21604624	    -18.57777130	      7.40853997	      0.48937936	      4.65683117	     18.20993496	     -4.85021214	    -16.34860462
      4.66000000	    -16.08231027	      1.49941479	      0.79259868	     -0.94373394	     -0.00778323	     -0.33106228	     40.83173767	     -3.11217837	     -6.64330444	    -45.48316731	      2.32819840	    -10.71959148	     13.35473212	     15.58165656	      4.29245064	     -6.17111369	    -18.27345153	      7.42541122	      0.85553932	      4.71310381	     18.13531366	     -4.74723649	    -16.67930064
      4.66500000	    -16.11266454	      1.34365814	      0.90387086	     -0.93791744	     -0.00758321	     -0.33123709	     41.08462912	     -2.99361490	     -6.94802290	    -44.00040903	      2.38232148	    -10.42065261	     13.31663676	     15.03962655	      4.14592201	     -6.14109648	    -17.96184022	      7.41316809	      1.15685594	      4.75636228	     18.10702070	     -4.65476068	    -16.90136201
      4.67000000	    -16.15759298	      1.19881474	      1.01370076	     -0.93208629	     -0.00745255	     -0.33140369	     41.32723925	     -2.88113596	     -7.23353505	    -42.47986411	      2.41713019	    -10.07633165	     13.33470702	     14.51928787	      4.00733339	     -6.11766242	    -17.66166550	      7.39706072	      1.45571098	      4.80497289	     18.09761639	     -4.56655629	    -17.10894571
      4.67500000	    -16.19671874	      1.05719720	      1.12076566	     -0.92623413	     -0.00736630	     -0.33154730	     41.53232108	     -2.76349296	     -7.49948906	    -40.91754987	      2.44039566	     -9.70512459	     13.39676079	     13.99254462	      3.86622002	     -6.09358139	    -17.36259686	      7.38139467	      1.76589196	      4.86453735	     18.08393052	     -4.48305016	    -17.31136444
      4.68000000	    -16.23093985	      0.92092943	      1.22415683	     -0.92035097	     -0.00732463	     -0.33167610	     41.70089814	     -2.64387770	     -7.74914616	    -39.31718139	      2.45117874	     -9.31333842	     13.49327572	     13.45997902	      3.72583412	     -6.07482027	    -17.06498758	      7.36234333	      2.08253151	      4.93576248	     18.06844392	     -4.40278204	    -17.50701967
      4.68500000	    -16.27142653	      0.79539569	      1.31740948	     -0.91444522	     -0.00734239	     -0.33176256	     41.84850148	     -2.51993000	     -7.96917349	    -37.68583063	      2.45107442	     -8.90822654	     13.60416340	     12.93452842	      3.58980388	     -6.05890746	    -16.77059661	      7.33437619	      2.39081385	      5.01283397	     18.06189856	     -4.33352321	    -17.68521708
      4.69000000	    -16.37531021	      0.70030928	      1.39017160	     -0.90856184	     -0.00750269	     -0.33185934	     42.04786620	     -2.39562091	     -8.06980311	    -36.03897038	      2.45446866	     -8.47409043	     13.66239651	     12.49013773	      3.48921826	     -6.02680232	    -16.50208043	      7.29763627	      2.62950787	      5.05865025	     18.12234320	     -4.27264973	    -17.80107508
      4.69500000	    -16.33746385	      0.55438163	      1.52085578	     -0.90254390	     -0.00751991	     -0.33199639	     42.03814089	     -2.28894248	     -8.38704891	    -34.35043379	      2.43418376	     -8.07845527	     13.80272613	     11.87480234	      3.32753566	     -6.02932451	    -16.20169638	      7.28081780	      3.03261634	      5.19005974	     18.04206857	     -4.18858287	    -18.04496789
      4.70000000	    -16.32626396	      0.44059984	      1.61750175	     -0.89655031	     -0.00763637	     -0.33207152	     42.03756688	     -2.15967923	     -8.53460305	    -32.64059614	      2.41929028	     -7.70242494	     13.96152735	     11.29775240	      3.19458626	     -6.01233140	    -15.92000871	      7.24033465	      3.34865825	      5.33710112	     17.98584409	     -4.12117017	    -18.21879361
      4.70500000	    -16.39617642	      0.34097853	      1.69340639	     -0.89047757	     -0.00790137	     -0.33216986	     42.12161147	     -2.05449501	     -8.74938055	    -30.96572522	      2.38360199	     -7.27407794	     14.03503539	     10.80495368	      3.08057438	     -6.01685436	    -15.64399593	      7.18862388	      3.61267401	      5.42927403	     18.03264368	     -4.05240906	    -18.34027365
      4.71000000	    -16.41407691	      0.23355506	      1.79219576	     -0.88437119	     -0.00815787	     -0.33225032	     42.11601598	     -1.94698373	     -8.95606408	    -29.27917995	      2.36490256	     -6.86922903	     14.09780600	     10.26418601	      2.95289769	     -6.00350040	    -15.38387104	      7.14442978	      3.91191552	      5.54258251	     18.02211351	     -3.98604689	    -18.50206284
      4.71500000	    -16.41852977	      0.13195327	      1.88876188	     -0.87822007	     -0.00845288	     -0.33229972	     42.07960493	     -1.84272732	     -9.17360574	    -27.60963157	      2.34747703	     -6.47104550	     14.14933681	      9.71344305	      2.82639924	     -5.99105186	    -15.13660941	      7.09306405	      4.20257767	      5.66313335	     18.00067753	     -3.92665409	    -18.66012516
      4.72000000	    -16.49221967	      0.05205134	      1.96482398	     -0.87206535	     -0.00889977	     -0.33231003	     42.11573349	     -1.74123437	     -9.32307743	    -25.97788166	      2.34422301	     -6.05286704	     14.16143392	      9.26247026	      2.72348558	     -5.96801611	    -14.94504324	      7.04582710	      4.41556244	      5.73699629	     18.05643802	     -3.88657991	    -18.75475131
      4.72500000	    -16.42139728	     -0.07549313	      2.09479699	     -0.86577318	     -0.00918773	     -0.33241527	     41.96420574	     -1.65356888	     -9.69715449	    -24.37048661	      2.31447160	     -5.64749618	     14.20601766	      8.63484857	      2.56578963	     -5.95805583	    -14.71152016	      6.99145098	      4.75839507	      5.88422978	     17.97012578	     -3.79719370	    -18.96668989
      4.73000000	    -16.42038630	     -0.17975392	      2.17421348	     -0.85945788	     -0.00962561	     -0.33238349	     41.89417608	     -1.54294590	     -9.98489777	    -22.81992724	      2.29290164	     -5.22146311	     14.24854810	      8.09943281	      2.42319513	     -5.94234140	    -14.52274313	      6.92702472	      5.00668952	      6.00589750	     17.96356795	     -3.73321995	    -19.10245714
      4.73500000	    -16.38971444	     -0.29731275	      2.28999841	     -0.85310946	     -0.01006920	     -0.33240611	     41.78394459	     -1.45255126	    -10.35531069	    -21.32756525	      2.27469929	     -4.77954924	     14.31144969	      7.55062782	      2.26684610	     -5.92651021	    -14.36352465	      6.86837680	      5.28248189	      6.14978571	     17.92603436	     -3.65582070	    -19.26288933
